<?xml version="1.0" encoding="UTF-8"?>
<svg xmlns="http://www.w3.org/2000/svg" version="1.1" width="300" height="300" viewBox="0 0 300 300"><rect x="0" y="0" width="300" height="300" fill="#ffffff"/><g transform="scale(12)"><g transform="translate(0,0)"><path fill-rule="evenodd" d="M10 0L10 1L9 1L9 2L8 2L8 8L9 8L9 9L7 9L7 8L2 8L2 10L3 10L3 12L1 12L1 11L0 11L0 17L1 17L1 14L2 14L2 16L3 16L3 17L7 17L7 16L5 16L5 15L8 15L8 16L9 16L9 15L8 15L8 14L10 14L10 13L11 13L11 12L12 12L12 11L11 11L11 12L10 12L10 13L9 13L9 12L8 12L8 11L10 11L10 10L12 10L12 9L14 9L14 11L15 11L15 9L16 9L16 10L18 10L18 11L16 11L16 12L15 12L15 14L14 14L14 15L12 15L12 17L13 17L13 16L14 16L14 17L15 17L15 18L16 18L16 21L15 21L15 22L14 22L14 21L12 21L12 19L13 19L13 18L11 18L11 16L10 16L10 17L8 17L8 18L9 18L9 19L8 19L8 23L9 23L9 24L8 24L8 25L11 25L11 21L12 21L12 22L13 22L13 23L12 23L12 25L13 25L13 24L14 24L14 25L15 25L15 24L14 24L14 23L16 23L16 22L17 22L17 21L18 21L18 23L17 23L17 24L16 24L16 25L17 25L17 24L22 24L22 25L25 25L25 24L24 24L24 23L25 23L25 21L23 21L23 22L22 22L22 23L21 23L21 21L22 21L22 19L25 19L25 12L23 12L23 13L24 13L24 14L22 14L22 15L23 15L23 16L24 16L24 18L22 18L22 19L21 19L21 17L22 17L22 16L18 16L18 15L19 15L19 14L20 14L20 15L21 15L21 13L22 13L22 12L18 12L18 11L19 11L19 10L20 10L20 11L21 11L21 9L23 9L23 8L18 8L18 9L16 9L16 8L15 8L15 9L14 9L14 8L12 8L12 7L13 7L13 6L14 6L14 7L15 7L15 4L16 4L16 5L17 5L17 0L14 0L14 1L13 1L13 0ZM10 1L10 3L9 3L9 5L11 5L11 4L13 4L13 5L12 5L12 6L11 6L11 7L12 7L12 6L13 6L13 5L14 5L14 2L13 2L13 1ZM11 2L11 3L10 3L10 4L11 4L11 3L13 3L13 2ZM9 6L9 7L10 7L10 6ZM16 6L16 7L17 7L17 6ZM0 8L0 10L1 10L1 8ZM10 8L10 9L11 9L11 8ZM5 9L5 10L4 10L4 12L5 12L5 13L2 13L2 14L5 14L5 13L6 13L6 14L8 14L8 13L6 13L6 12L7 12L7 11L6 11L6 10L7 10L7 9ZM18 9L18 10L19 10L19 9ZM24 9L24 10L25 10L25 9ZM22 10L22 11L23 11L23 10ZM13 12L13 13L12 13L12 14L13 14L13 13L14 13L14 12ZM17 12L17 13L16 13L16 14L15 14L15 15L14 15L14 16L16 16L16 15L18 15L18 12ZM3 15L3 16L4 16L4 15ZM17 17L17 20L20 20L20 17ZM18 18L18 19L19 19L19 18ZM9 19L9 23L10 23L10 19ZM19 21L19 23L20 23L20 21ZM23 22L23 23L22 23L22 24L23 24L23 23L24 23L24 22ZM0 0L7 0L7 7L0 7ZM1 1L1 6L6 6L6 1ZM2 2L5 2L5 5L2 5ZM18 0L25 0L25 7L18 7ZM19 1L19 6L24 6L24 1ZM20 2L23 2L23 5L20 5ZM0 18L7 18L7 25L0 25ZM1 19L1 24L6 24L6 19ZM2 20L5 20L5 23L2 23Z" fill="#000000"/></g></g></svg>
